<svg width="1280" height="720" viewBox="0 0 1280 720" fill="none" xmlns="http://www.w3.org/2000/svg">
<g clip-path="url(#clip0_310_85)">
<path d="M1280 0H0V720H1280V0Z" fill="#080808"/>
<line x1="112" y1="610" x2="1169" y2="610" stroke="white" stroke-width="4"/>
<path d="M639 294C701.408 294 752 244.751 752 184C752 123.249 701.408 74 639 74C576.592 74 526 123.249 526 184C526 244.751 576.592 294 639 294Z" fill="#F4F4F4" stroke="#080808" stroke-width="9" stroke-linecap="round" stroke-linejoin="round"/>
<path d="M531.974 238C550.103 238 553.948 215.838 553.948 188.5C553.948 161.162 556.145 139 531.974 139C510 139 510 161.162 510 188.5C510 215.838 516.592 238 531.974 238Z" fill="#F4F4F4" stroke="#080808" stroke-width="9" stroke-linecap="round" stroke-linejoin="round"/>
<path d="M746.026 238C727.897 238 724.052 215.838 724.052 188.5C724.052 161.162 721.855 139 746.026 139C768 139 768 161.162 768 188.5C768 215.838 761.408 238 746.026 238Z" fill="#F4F4F4" stroke="#080808" stroke-width="9" stroke-linecap="round" stroke-linejoin="round"/>
<path d="M517 326C517 306 533 290 553 290H725C745 290 761 306 761 326V564C761 591 739 613 712 613H566C539 613 517 591 517 564V326Z" fill="#F4F4F4" stroke="#080808" stroke-width="9" stroke-linecap="round" stroke-linejoin="round"/>
<path d="M538 362L746 362" stroke="black" stroke-width="6" stroke-linecap="round" stroke-linejoin="round"/>
<path opacity="0.55" d="M571 403L713 403" stroke="black" stroke-width="6" stroke-linecap="round" stroke-linejoin="round"/>
<path d="M608 149.5C610.571 149.5 613.361 151.101 615.675 154.648C617.967 158.164 619.5 163.228 619.5 169C619.5 174.772 617.967 179.836 615.675 183.352C613.361 186.899 610.571 188.5 608 188.5C605.429 188.5 602.639 186.899 600.325 183.352C598.033 179.836 596.5 174.772 596.5 169C596.5 163.228 598.033 158.164 600.325 154.648C602.639 151.101 605.429 149.5 608 149.5Z" stroke="black" stroke-width="7"/>
<path d="M672 149.5C674.571 149.5 677.361 151.101 679.675 154.648C681.967 158.164 683.5 163.228 683.5 169C683.5 174.772 681.967 179.836 679.675 183.352C677.361 186.899 674.571 188.5 672 188.5C669.429 188.5 666.639 186.899 664.325 183.352C662.033 179.836 660.5 174.772 660.5 169C660.5 163.228 662.033 158.164 664.325 154.648C666.639 151.101 669.429 149.5 672 149.5Z" stroke="black" stroke-width="7"/>
<path d="M490.22 392.272C511.88 401.314 537.373 389.639 547.16 366.194C556.947 342.75 547.322 316.415 525.661 307.372C504.001 298.33 478.508 310.005 468.721 333.45C458.934 356.894 468.559 383.23 490.22 392.272Z" fill="#F4F4F4" stroke="#080808" stroke-width="9" stroke-linecap="round" stroke-linejoin="round"/>
<path d="M786.661 392.272C765.001 401.314 739.508 389.639 729.721 366.194C719.934 342.75 729.559 316.415 751.22 307.372C772.88 298.33 798.374 310.005 808.16 333.45C817.947 356.894 808.322 383.23 786.661 392.272Z" fill="#F4F4F4" stroke="#080808" stroke-width="9" stroke-linecap="round" stroke-linejoin="round"/>
<path d="M463.5 363C440.647 397.086 425 429.5 412.713 466.044C408.632 489.715 422.507 512.438 442.912 517.172C463.316 521.907 482.904 505.811 486.985 482.14C491.066 456.576 501.676 431.012 518 406.394L463.5 363Z" fill="#F4F4F4" stroke="#080808" stroke-width="9" stroke-linecap="round" stroke-linejoin="round"/>
<path d="M813.535 363C836.388 397.086 852.035 429.5 864.321 466.044C868.402 489.715 854.527 512.438 834.123 517.172C813.718 521.907 794.13 505.811 790.049 482.14C785.968 456.576 775.358 431.012 759.035 406.394L813.535 363Z" fill="#F4F4F4" stroke="#080808" stroke-width="9" stroke-linecap="round" stroke-linejoin="round"/>
<path d="M457 556C476.882 556 493 539.882 493 520C493 500.118 476.882 484 457 484C437.118 484 421 500.118 421 520C421 539.882 437.118 556 457 556Z" fill="#F4F4F4" stroke="#080808" stroke-width="9" stroke-linecap="round" stroke-linejoin="round"/>
<path d="M820.035 556C800.152 556 784.035 539.882 784.035 520C784.035 500.118 800.152 484 820.035 484C839.917 484 856.035 500.118 856.035 520C856.035 539.882 839.917 556 820.035 556Z" fill="#F4F4F4" stroke="#080808" stroke-width="9" stroke-linecap="round" stroke-linejoin="round"/>
<path d="M451.5 554C464.484 565.91 478.409 576.423 495 586.5C510.87 595.661 537.779 611 556 581.5C567.5 562.881 545 547.5 527.5 536.5C516.5 527.5 495.582 516.936 484.903 509L451.5 554Z" fill="#F4F4F4" stroke="#080808" stroke-width="9" stroke-linecap="round" stroke-linejoin="round"/>
<path d="M524 594L552 556" stroke="#080808" stroke-width="9" stroke-linecap="round" stroke-linejoin="round"/>
<path d="M557.641 561.605C562.632 561.017 576.678 561.827 592.93 569.773C609.182 577.719 611.988 589.886 609.979 594.164C609.835 595.398 608.636 596.462 608.161 597.848C608.659 600.708 607.858 603.974 606.359 606.58C604.502 609.806 601.787 611.164 598.393 613.018C595.538 615.597 589.007 618.35 586.535 618.449C577.102 618.829 569.388 617.225 557.214 611.347C548.05 606.923 532.591 601.182 529.703 598.037C540.552 598.674 547.718 592.789 552 590.5C556 586.5 559.5 582 561 577C559.72 569.646 560.318 565.909 557.641 561.605Z" fill="#FFFAFA"/>
<path d="M552 590.5C558.983 592.652 580.271 602.445 588.08 605.974C596.149 609.62 597.764 612.426 598.393 613.018M552 590.5C556 586.5 559.5 582 561 577M552 590.5C547.718 592.789 540.552 598.674 529.703 598.037C532.591 601.182 548.05 606.923 557.214 611.347C569.388 617.225 577.102 618.829 586.535 618.449C589.007 618.35 595.538 615.597 598.393 613.018M598.393 613.018C601.787 611.164 604.502 609.806 606.359 606.58C607.858 603.974 608.659 600.708 608.161 597.848M561 577C573.12 578.538 602.108 585.769 608.161 597.848M561 577C559.72 569.646 560.318 565.909 557.641 561.605C562.632 561.017 576.678 561.827 592.93 569.773C609.182 577.719 611.988 589.886 609.979 594.164C609.835 595.398 608.636 596.462 608.161 597.848" stroke="black" stroke-width="9"/>
<path d="M828.131 554C815.147 565.91 801.222 576.423 784.631 586.5C768.761 595.661 741.851 611 723.631 581.5C712.131 562.881 734.631 547.5 752.131 536.5C763.131 527.5 784.049 516.936 794.728 509L828.131 554Z" fill="#F4F4F4" stroke="#080808" stroke-width="9" stroke-linecap="round" stroke-linejoin="round"/>
<path d="M755.631 594L727.631 556" stroke="#080808" stroke-width="9" stroke-linecap="round" stroke-linejoin="round"/>
<path d="M721.99 561.605C716.998 561.017 702.953 561.827 686.701 569.773C670.449 577.719 667.643 589.886 669.651 594.164C669.796 595.398 670.995 596.462 671.47 597.848C670.972 600.708 671.772 603.974 673.272 606.58C675.129 609.806 677.843 611.164 681.238 613.018C684.092 615.597 690.624 618.35 693.096 618.449C702.529 618.829 710.242 617.225 722.417 611.347C731.581 606.923 747.04 601.182 749.928 598.037C739.078 598.674 731.913 592.789 727.631 590.5C723.631 586.5 720.131 582 718.631 577C719.911 569.646 719.313 565.909 721.99 561.605Z" fill="#FFFAFA"/>
<path d="M727.631 590.5C720.648 592.652 699.36 602.445 691.55 605.974C683.481 609.62 681.867 612.426 681.238 613.018M727.631 590.5C723.631 586.5 720.131 582 718.631 577M727.631 590.5C731.913 592.789 739.078 598.674 749.928 598.037C747.04 601.182 731.581 606.923 722.417 611.347C710.242 617.225 702.529 618.829 693.096 618.449C690.624 618.35 684.092 615.597 681.238 613.018M681.238 613.018C677.843 611.164 675.129 609.806 673.272 606.58C671.772 603.974 670.972 600.708 671.47 597.848M718.631 577C706.511 578.538 677.523 585.769 671.47 597.848M718.631 577C719.911 569.646 719.313 565.909 721.99 561.605C716.998 561.017 702.953 561.827 686.701 569.773C670.449 577.719 667.643 589.886 669.651 594.164C669.796 595.398 670.995 596.462 671.47 597.848" stroke="black" stroke-width="9"/>
</g>
<defs>
<clipPath id="clip0_310_85">
<rect width="1280" height="720" fill="white"/>
</clipPath>
</defs>
</svg>
