<svg width="589" height="710" viewBox="0 0 589 710" fill="none" xmlns="http://www.w3.org/2000/svg">
<rect width="589" height="710" fill="#F5F5F5"/>
<g id="male_bodymap">
<g id="feet">
<path fill-rule="evenodd" clip-rule="evenodd" d="M171.427 663.407C171.645 661.888 171.923 659.954 171.923 658.016C168.997 661.112 159.734 666.514 149.099 659.078V664.655V673.951C149.099 676.384 148.526 681.329 148.034 685.568C147.666 688.744 147.344 691.517 147.344 692.542C147.344 694.933 147.595 697.323 148.096 699.448C148.522 701.254 149.852 703.166 150.855 703.963C151.858 704.759 153.363 705.025 155.37 705.025C156.975 705.025 158.713 704.319 159.383 703.963C160.469 704.138 162.894 704.494 163.897 704.494C164.9 704.494 166.656 703.256 167.408 702.635C167.826 702.81 169.064 703.166 170.669 703.166C172.274 703.166 173.511 702.103 173.929 701.572C173.798 701.923 176.939 702.103 177.942 701.572C178.745 701.147 179.781 699.979 180.2 699.448C180.701 699.803 182.005 700.297 183.209 699.448L183.328 699.363C184.779 698.343 185.968 697.503 185.968 694.401C185.968 690.965 180.848 684.606 177.887 680.925C177.638 680.617 177.404 680.325 177.19 680.059C174.431 676.607 171.171 667.046 171.171 665.718C171.171 665.197 171.286 664.39 171.427 663.407Z" fill="#D9D9D9" fill-opacity="0.71" stroke="white" stroke-width="1.5"/>
<path fill-rule="evenodd" clip-rule="evenodd" d="M94.5558 663.407C94.3376 661.888 94.0597 659.954 94.0597 658.016C96.9861 661.112 106.249 666.514 116.883 659.078V664.655V673.951C116.883 676.384 117.457 681.329 117.949 685.568C118.317 688.744 118.639 691.517 118.639 692.542C118.639 694.933 118.388 697.323 117.886 699.448C117.461 701.254 116.131 703.166 115.128 703.963C114.124 704.759 112.619 705.025 110.613 705.025C109.008 705.025 107.269 704.319 106.6 703.963C105.514 704.138 103.089 704.494 102.086 704.494C101.082 704.494 99.3266 703.256 98.5742 702.635C98.1564 702.81 96.9189 703.166 95.3137 703.166C93.709 703.166 92.4716 702.103 92.0532 701.572C92.1851 701.923 89.0435 702.103 88.0403 701.572C87.2382 701.147 86.2013 699.979 85.783 699.448C85.2814 699.803 83.9777 700.297 82.7733 699.448L82.6549 699.363C81.2032 698.343 80.0144 697.503 80.0144 694.401C80.0144 690.965 85.1354 684.606 88.0954 680.925C88.3448 680.617 88.5785 680.325 88.7927 680.059C91.5516 676.607 94.8121 667.046 94.8121 665.718C94.8121 665.197 94.6967 664.39 94.5558 663.407Z" fill="#D9D9D9" fill-opacity="0.71" stroke="white" stroke-width="1.5"/>
<path fill-rule="evenodd" clip-rule="evenodd" d="M418.776 669.457C418.784 667.391 418.8 663.274 418.731 659.078C421.657 662.175 430.157 666.514 440.791 659.078C441.041 659.758 441.26 660.22 441.449 660.618C441.857 661.479 442.126 662.047 442.258 663.858C442.458 666.621 441.506 672.979 441.004 675.81C442.09 680.415 444.264 690.577 444.264 694.401C444.264 699.182 442.919 701.572 441.004 703.431C439.089 705.291 432.727 705.556 430.721 705.025C429.881 704.802 428.108 704.117 426.14 703.352C423.402 702.289 420.286 701.084 418.773 700.776C417.762 700.568 416.307 700.483 414.775 700.393C412.372 700.25 409.777 700.096 408.399 699.448C406.593 698.598 403.976 697.089 403.976 694.401C403.976 690.412 406.741 688.457 409.764 686.327C411.368 685.196 413.044 684.017 414.418 682.45L419.591 675.013C419.145 673.85 418.773 672.31 418.773 670.498C418.773 670.264 418.775 669.909 418.776 669.457Z" fill="#9B9B9B" fill-opacity="0.86" stroke="white" stroke-width="1.5"/>
<path fill-rule="evenodd" clip-rule="evenodd" d="M494.841 669.457C494.833 667.391 494.817 663.274 494.887 659.078C491.96 662.175 483.46 666.514 472.826 659.078C472.577 659.758 472.358 660.22 472.168 660.618C471.761 661.479 471.491 662.047 471.36 663.858C471.159 666.621 472.112 672.979 472.614 675.81C471.527 680.415 469.353 690.577 469.353 694.401C469.353 699.182 470.699 701.572 472.614 703.431C474.528 705.291 480.89 705.556 482.897 705.025C483.736 704.802 485.509 704.117 487.478 703.352C490.215 702.289 493.332 701.084 494.844 700.775C495.856 700.568 497.31 700.483 498.842 700.393C501.246 700.25 503.84 700.096 505.219 699.448C507.025 698.598 509.642 697.089 509.642 694.401C509.642 690.412 506.876 688.457 503.853 686.327C502.249 685.196 500.573 684.017 499.199 682.45L494.026 675.013C494.472 673.85 494.844 672.31 494.844 670.498C494.844 670.264 494.842 669.909 494.841 669.457Z" fill="#9B9B9B" fill-opacity="0.86" stroke="white" stroke-width="1.5"/>
</g>
<g id="front_of_lower_legs">
<path d="M117.798 620.599C114.89 640.584 114.927 643.616 117.094 659C102.458 667 97.6359 659.629 95.9246 657.752C95.7721 656.78 93.436 653.9 93.1876 653C80.8953 598.436 80.5905 559.445 83.8592 535.59C88.8894 537.092 103.508 540.094 121.739 540.094C122.655 548.338 123.497 558.009 122.822 569.37C121.5 591.607 120.707 600.614 117.798 620.599Z" fill="#D9D9D9" stroke="white" stroke-width="1.5"/>
<path d="M148.286 620.599C149.783 641.5 149.295 648 149.295 659C161.038 668 168.449 659.629 170.16 657.752C170.312 656.78 171.978 655.4 172.226 654.5C184.518 599.936 185.494 559.445 182.225 535.59C177.195 537.092 162.577 540.094 144.345 540.094C143.43 548.338 142.588 558.009 143.263 569.37C144.585 591.607 145.378 600.614 148.286 620.599Z" fill="#D9D9D9" stroke="white" stroke-width="1.5"/>
</g>
<g id="knees">
<path d="M87.659 520.111C87.8088 515.648 87.1526 510.282 86.1355 504.346C90.9049 505.753 104.566 508.567 121.06 508.567C120.607 513.718 120.29 517.761 120.18 520.111C119.921 525.618 120.864 532.202 121.74 540.094C103.509 540.094 88.8913 537.091 83.8608 535.59C84.7403 529.172 86.0331 523.99 87.659 520.111Z" fill="#707070" fill-opacity="0.8" stroke="white" stroke-width="1.5"/>
<path d="M178.429 520.111C178.279 515.648 178.935 510.282 179.952 504.346C175.182 505.753 161.521 508.567 145.027 508.567C145.48 513.718 145.797 517.761 145.908 520.111C146.167 525.618 145.223 532.202 144.347 540.094C162.578 540.094 177.197 537.091 182.227 535.59C181.347 529.172 180.054 523.99 178.429 520.111Z" fill="#707070" fill-opacity="0.8" stroke="white" stroke-width="1.5"/>
</g>
<g id="front_of_thighs">
<path d="M130.408 382.465C130.009 399.212 129.278 420.297 128.11 433.978C126.436 453.578 122.776 489.04 121.059 508.567C104.565 508.567 90.9038 505.753 86.1342 504.346C83.5591 489.317 78.6678 470.632 78.6678 453.682C75.1536 433.478 75.2723 402.833 76.9546 374.302C86.7945 379.706 116.69 381.996 130.408 382.465Z" fill="#D9D9D9" stroke="white" stroke-width="1.5"/>
<path d="M135.677 382.465C136.075 399.212 136.807 420.297 137.975 433.978C139.648 453.578 143.308 489.04 145.026 508.567C161.52 508.567 175.181 505.753 179.951 504.346C182.526 489.317 187.417 470.632 187.417 453.682C190.932 433.478 190.812 402.833 189.131 374.302C179.29 379.706 149.395 381.996 135.677 382.465Z" fill="#D9D9D9" stroke="white" stroke-width="1.5"/>
</g>
<g id="genital_area">
<path d="M132.95 363.608H130.754C130.699 368.314 130.587 374.954 130.408 382.465C116.69 381.996 86.7938 379.706 76.9539 374.302C78.598 346.418 81.7356 320.555 84.4347 308.436C85.0122 310.966 99.7096 315.746 133.042 315.754C166.374 315.746 181.071 310.966 181.649 308.436C184.348 320.555 187.485 346.418 189.13 374.302C179.29 379.706 149.394 381.996 135.676 382.465C135.497 374.954 135.384 368.314 135.33 363.608H133.133H132.95Z" fill="#868686" fill-opacity="0.86" stroke="white" stroke-width="1.5"/>
</g>
<g id="abdomen">
<path d="M86.6007 301.683C87.1296 295.771 85.2787 247.357 85.0143 244.542C84.8801 243.113 82.0874 236.023 79.1975 227.548C87.5592 230.487 110.019 236.362 133.043 236.377C156.068 236.362 178.528 230.487 186.889 227.548C184 236.023 181.207 243.113 181.072 244.542C180.808 247.357 178.957 295.771 179.486 301.683C180.141 302.624 180.878 304.967 181.651 308.436C181.073 310.966 166.376 315.746 133.043 315.754C99.7112 315.746 85.0138 310.966 84.4363 308.436C85.2088 304.967 85.9454 302.624 86.6007 301.683Z" fill="#E2E2E2" stroke="white" stroke-width="1.5"/>
</g>
<g id="chest">
<path d="M133.042 169.103C84.985 169.092 63.2544 160.56 45.9563 153.621C44.311 157.488 43.1529 161.992 42.709 167.245C51.0498 170.304 68.2434 178.617 70.291 187.399C72.3385 196.181 72.8504 201.381 72.8504 202.883C73.5012 209.81 76.3942 219.331 79.1959 227.548C87.5576 230.487 110.018 236.362 133.042 236.377C156.066 236.362 178.526 230.487 186.888 227.548C189.69 219.331 192.582 209.81 193.233 202.883C193.233 201.381 193.745 196.181 195.793 187.399C197.84 178.617 215.034 170.304 223.374 167.245C222.93 161.992 221.772 157.488 220.128 153.621C202.829 160.56 181.098 169.092 133.042 169.103Z" fill="#9B9B9B" stroke="white" stroke-width="1.5"/>
</g>
<g id="front_of_shoulders">
<path d="M79.1971 129.417C82.5815 128.065 103.169 117.406 113.04 112.246C113.04 113.647 121.54 122.051 133.043 122.096C144.545 122.051 153.046 113.647 153.046 112.246C162.917 117.406 183.505 128.065 186.889 129.417C190.126 130.709 211.629 133.649 220.128 153.621C202.83 160.56 181.1 169.092 133.043 169.103C84.9862 169.092 63.2557 160.56 45.9575 153.621C54.4571 133.649 75.9603 130.709 79.1971 129.417Z" fill="#D9D9D9" stroke="white" stroke-width="1.5"/>
</g>
<g id="front_of_neck">
<path d="M113.039 112.246V92.8242C115.822 93.853 123.708 98.9809 133.043 99.0142C142.378 98.9809 150.262 93.853 153.045 92.8242V112.246C153.045 113.647 144.545 122.051 133.043 122.096C121.54 122.051 113.039 113.647 113.039 112.246Z" fill="#A6A6A6" stroke="white" stroke-width="1.5"/>
</g>
<g id="scalp">
<path d="M104.315 25.9985C110.422 5.28362 131.1 5.00324 133.042 5.00003C134.986 5.00324 155.664 5.28364 161.771 25.9985C156.964 26.8781 144.507 27.235 133.042 27.2369C121.578 27.235 109.121 26.8781 104.315 25.9985Z" fill="#C6C6C6" stroke="white" stroke-width="1.5"/>
</g>
<g id="back_of_thighs">
<path d="M454.185 382.465C453.786 399.212 453.054 420.297 451.886 433.978C450.212 453.578 446.552 489.04 444.835 508.567C444.382 513.718 444.064 517.761 443.954 520.111C443.956 521.517 440.633 524.331 427.32 524.331C414.006 524.331 411.181 521.517 411.433 520.111C411.583 515.648 410.927 510.282 409.91 504.346C407.334 489.317 402.444 470.632 402.444 453.682C398.93 433.478 399.048 402.833 400.731 374.302C410.57 379.706 440.466 381.996 454.185 382.465Z" fill="#D9D9D9" stroke="white" stroke-width="1.5"/>
<path d="M459.452 382.465C459.851 399.212 460.582 420.297 461.751 433.978C463.424 453.578 467.085 489.04 468.801 508.567C469.254 513.718 469.572 517.761 469.682 520.111C469.68 521.517 471.569 524.331 485.487 524.331C499.405 524.331 502.96 521.517 502.204 520.111C502.054 515.648 502.709 510.282 503.726 504.346C506.301 489.317 511.193 470.632 511.193 453.682C514.707 433.478 514.589 402.833 512.906 374.302C503.066 379.706 473.17 381.996 459.452 382.465Z" fill="#D9D9D9" stroke="white" stroke-width="1.5"/>
</g>
<g id="buttocks">
<path d="M456.726 350.095L455.913 366.352C455.858 371.059 455.465 376.161 454.184 382.465C440.466 381.996 410.57 379.706 400.73 374.302C402.374 346.418 405.511 320.555 408.21 308.436C408.787 310.966 423.485 315.746 456.817 315.754C490.149 315.746 504.847 310.966 505.424 308.436C508.124 320.555 511.261 346.418 512.905 374.302C503.065 379.706 473.169 381.996 459.451 382.465C458.604 376.161 457.707 371.515 457.707 366.352L456.726 350.095Z" fill="#8C8C8C" stroke="white" stroke-width="1.5"/>
</g>
<g id="back_of_shoulders">
<path d="M402.973 129.417C406.357 128.065 426.945 117.406 436.815 112.246C436.815 113.647 445.316 122.051 456.819 122.096C468.322 122.051 476.821 113.647 476.821 112.246C486.693 117.406 507.28 128.065 510.665 129.417C513.902 130.709 535.405 133.649 543.905 153.621C526.606 160.56 504.875 169.092 456.819 169.103C408.762 169.092 387.032 160.56 369.733 153.621C378.233 133.649 399.736 130.709 402.973 129.417Z" fill="#A3A3A3" stroke="white" stroke-width="1.5"/>
</g>
<g id="back_of_neck">
<path d="M436.815 112.246V92.8242C439.598 93.853 447.483 98.9809 456.818 99.0142C466.153 98.9809 474.038 93.853 476.821 92.8242V112.246C476.821 113.647 468.321 122.051 456.818 122.096C445.315 122.051 436.815 113.647 436.815 112.246Z" fill="#898989" stroke="white" stroke-width="1.5"/>
</g>
<g id="face">
<path fill-rule="evenodd" clip-rule="evenodd" d="M104.313 25.9986C102.529 32.0473 101.989 39.8848 103.52 50.0394L104.313 75.6541C103.678 84.211 109.865 90.6663 113.038 92.8243C113.636 93.0452 114.468 93.4551 115.5 93.9628C119.274 95.8202 125.711 98.9882 133.041 99.0143C140.372 98.9882 146.808 95.8203 150.582 93.9629C151.614 93.4551 152.447 93.0452 153.044 92.8243C156.217 90.6663 162.403 84.211 161.769 75.6541L162.562 50.0394C164.093 39.8848 163.552 32.0473 161.769 25.9986C156.963 26.8782 144.506 27.2351 133.041 27.237C121.577 27.2351 109.12 26.8782 104.313 25.9986Z" fill="#D9D9D9" stroke="white" stroke-width="1.5"/>
</g>
<g id="back_of_lower_legs">
<path fill-rule="evenodd" clip-rule="evenodd" d="M407.879 542C404.611 565.855 406.32 600.936 418.612 655.5C420.415 663.5 432.273 665 440.693 657.752C440.693 649 440.893 635.008 442.519 623.5C444.429 609.986 445.239 591.607 446.561 569.37C447.237 558.009 446.394 548.338 445.478 540.094C445.331 538.765 445.181 537.475 445.036 536.219C444.326 530.082 443.716 524.804 443.911 520.258C443.778 521.704 440.844 525.5 427.395 525.5C414.709 525 411.346 521.946 411.782 520.5C410.185 524.361 408.747 535.665 407.879 542Z" fill="#BABABA" stroke="white" stroke-width="1.5"/>
<path fill-rule="evenodd" clip-rule="evenodd" d="M471.305 621.5C472.914 632.881 473.843 648.145 472.914 657.752C478.135 665.5 487.951 665.5 495.212 657.752C507.504 603.188 509.277 559.445 506.007 535.589C505.249 530.046 504.18 525.425 502.856 521.769C502.667 521.247 502.472 520.744 502.273 520.262C502.708 521.708 498.93 524.331 485.495 524.331C472.045 524.331 469.828 521.704 469.696 520.258C469.891 524.804 469.281 530.082 468.57 536.219C468.425 537.474 468.276 538.765 468.128 540.094C467.213 548.338 466.37 558.009 467.045 569.37C468.367 591.607 469.395 607.986 471.305 621.5Z" fill="#BABABA" stroke="white" stroke-width="1.5"/>
</g>
<g id="back">
<path fill-rule="evenodd" clip-rule="evenodd" d="M366.487 167.245C378.895 167.245 391.751 191.004 396.629 202.883C397.279 209.81 400.172 219.331 402.974 227.548C404.105 230.865 405.221 233.97 406.169 236.606C407.641 240.703 408.709 243.672 408.79 244.542C409.055 247.357 410.906 295.771 410.377 301.683C409.721 302.624 408.985 304.967 408.213 308.436C408.79 310.966 423.488 315.746 456.82 315.754C490.152 315.746 504.85 310.966 505.427 308.436C504.654 304.967 503.918 302.624 503.262 301.683C502.734 295.771 504.584 247.357 504.849 244.542C504.93 243.672 505.997 240.706 507.47 236.606C508.418 233.969 509.534 230.865 510.666 227.548C513.467 219.331 516.36 209.81 517.011 202.883C521.745 191.004 534.4 167.245 547.153 167.245C546.709 161.991 545.551 157.488 543.905 153.621C526.607 160.56 504.876 169.092 456.82 169.103C408.763 169.092 387.033 160.56 369.734 153.621C368.089 157.488 366.931 161.991 366.487 167.245Z" fill="#D9D9D9" stroke="white" stroke-width="1.5"/>
</g>
<g id="upper_arms">
<path d="M37.6868 244.542C36.8936 214.143 37.6868 190.498 42.7104 177.268C42.4352 173.656 42.4505 170.322 42.7104 167.245C51.0512 170.304 68.2449 178.616 70.2924 187.399C72.3399 196.181 72.8519 201.381 72.8519 202.883C70.7366 215.55 62.2759 258.053 64.6555 273.253C47.2481 266.049 39.4233 251.111 37.6868 244.542Z" fill="#D9D9D9" stroke="white" stroke-width="1.5"/>
<path d="M228.4 244.542C229.193 214.143 228.4 190.498 223.376 177.268C223.651 173.656 223.636 170.322 223.376 167.245C215.035 170.304 197.842 178.616 195.794 187.399C193.746 196.181 193.235 201.381 193.235 202.883C195.35 215.55 203.81 258.053 201.431 273.253C218.839 266.049 226.663 251.111 228.4 244.542Z" fill="#D9D9D9" stroke="white" stroke-width="1.5"/>
<path fill-rule="evenodd" clip-rule="evenodd" d="M366.486 167.245C366.226 170.322 366.212 173.656 366.486 177.268C361.463 190.498 360.67 214.143 361.463 244.542C367.72 254.112 381.874 273.253 388.431 273.253C386.398 260.266 392.28 227.343 395.354 210.134L395.358 210.11C395.88 207.189 396.321 204.722 396.628 202.883C391.751 191.004 378.895 167.245 366.486 167.245Z" fill="#A3A3A3" stroke="white" stroke-width="1.5"/>
<path fill-rule="evenodd" clip-rule="evenodd" d="M518.284 210.131C521.359 227.339 527.241 260.265 525.207 273.253C539.773 268.186 547.153 254.333 552.176 244.542C552.969 214.143 552.176 190.498 547.153 177.268C547.428 173.656 547.413 170.322 547.153 167.245C534.401 167.245 521.745 191.004 517.011 202.883C517.319 204.726 517.761 207.2 518.284 210.131Z" fill="#A3A3A3" stroke="white" stroke-width="1.5"/>
</g>
<g id="forearms">
<path d="M29.7521 268.186C30.2809 261.431 39.0061 251.298 37.684 244.542C39.4205 251.111 47.2454 266.049 64.6527 273.253C52.226 307.875 45.0873 332.364 44.0297 336.304C43.5008 338.274 42.9346 340.5 39.0315 341C34.6405 341 32.6889 341 29.2737 339.5C26.8342 339.5 21.7334 338.709 23.4189 337C28.9713 331.37 25.5217 273.253 29.7521 268.186Z" fill="#848484" stroke="white" stroke-width="1.5"/>
<path d="M236.329 268.186C235.8 261.431 227.075 251.298 228.397 244.542C226.661 251.111 218.836 266.049 201.428 273.253C213.855 307.875 220.994 332.364 222.051 336.304C222.581 338.274 223.232 337.798 222.967 341C230.774 341 234.189 340.5 240.531 339C241.995 338.5 242.483 338.696 242.483 336.5C236.931 330.87 240.56 273.253 236.329 268.186Z" fill="#848484" stroke="white" stroke-width="1.5"/>
<path fill-rule="evenodd" clip-rule="evenodd" d="M353.531 268.186C353.762 265.23 355.565 261.624 357.407 257.939C359.773 253.207 362.207 248.34 361.463 244.542C367.721 254.112 381.875 273.253 388.432 273.253C376.005 307.875 368.866 332.364 367.809 336.304C367.31 338.164 367.384 340 366.408 341C360.661 341.825 356.162 340.5 349.332 338.5C347.38 338 346.183 338.013 347.868 336.304C350.838 333.294 349.987 315.472 350.573 298.765C351.083 284.233 351.563 270.543 353.531 268.186Z" fill="#E7E7E7" stroke="white" stroke-width="1.5"/>
<path fill-rule="evenodd" clip-rule="evenodd" d="M552.176 244.542C551.432 248.34 553.866 253.207 556.232 257.939C558.074 261.624 559.876 265.23 560.108 268.186C562.076 270.543 562.556 284.233 563.066 298.765C563.652 315.472 563.475 333.489 566.444 336.5C565.468 338 563.029 338 560.101 339.5C555.222 341 550.344 341 546.44 339.5C546.44 339 546.329 338.164 545.83 336.304C544.773 332.364 537.634 307.875 525.207 273.253C539.773 268.186 547.152 254.333 552.176 244.542Z" fill="#E7E7E7" stroke="white" stroke-width="1.5"/>
</g>
<g id="back_of_head">
<path fill-rule="evenodd" clip-rule="evenodd" d="M486.341 50.0393C487.872 39.8847 487.331 32.0471 485.548 25.9984C479.441 5.28357 458.763 5.00321 456.82 5C454.877 5.00321 434.199 5.28357 428.092 25.9984C426.308 32.0471 425.768 39.8847 427.299 50.0393L428.092 75.6539C427.457 84.2109 433.644 90.6662 436.817 92.8242C437.415 93.0452 438.247 93.455 439.279 93.9628C443.053 95.8199 449.487 98.9869 456.815 99.0141C464.148 98.9892 470.586 95.8204 474.361 93.9627C475.393 93.455 476.226 93.0451 476.823 92.8242C479.996 90.6662 486.182 84.2109 485.548 75.6539L486.341 50.0393Z" fill="#D9D9D9" stroke="white" stroke-linejoin="round" stroke-width="1.5"/>
</g>
<g id="back_of_hands">
<path fill-rule="evenodd" clip-rule="evenodd" d="M359.393 390.255C358.55 392.834 357.981 394.573 357.919 394.828C357.652 395.923 355.252 396.47 354.718 396.196C354.629 396.151 354.54 396.113 354.451 396.075C354.007 395.885 353.562 395.694 353.117 394.555C352.691 393.46 355.607 381.512 357.119 375.675C355.252 382.698 351.357 397.4 350.716 400.027C350.021 402.88 348.318 402.634 347.534 402.521C347.415 402.504 347.318 402.49 347.248 402.49C346.848 402.49 346.448 402.028 346.048 401.566C345.915 401.412 345.781 401.258 345.648 401.121C345.221 400.684 348.493 383.975 350.183 375.675C348.404 383.792 344.741 400.355 344.314 401.669C343.78 403.31 342.18 404.405 340.312 403.858C339.048 403.487 338.762 402.365 338.544 401.508C338.44 401.1 338.35 400.751 338.178 400.574C337.751 400.136 341.201 382.88 342.98 374.307C341.557 381.056 338.605 395.047 338.178 397.017C337.645 399.48 335.51 400.301 334.443 400.027C334.33 399.998 334.216 399.975 334.104 399.952C333.161 399.762 332.309 399.59 332.309 395.923C332.309 392.639 336.222 371.023 338.178 360.626C336.755 364.365 333.59 372.173 332.309 373.486C330.709 375.128 323.772 373.759 325.106 371.844C325.736 370.94 326.247 369.669 326.836 368.205C327.493 366.569 328.248 364.692 329.375 362.815C330.359 361.174 331.116 358.777 331.935 356.186C332.89 353.161 333.93 349.872 335.51 347.218C337.858 343.278 345.923 337.915 349.48 336C350.992 338.371 356.212 342.348 367.523 340.378C367.79 341.199 368.857 355.974 368.323 360.626C367.914 364.194 362.168 381.767 359.393 390.255Z" fill="#D9D9D9" fill-opacity="0.71" stroke="white" stroke-width="1.5"/>
<path fill-rule="evenodd" clip-rule="evenodd" d="M554.542 390.255C555.385 392.834 555.954 394.573 556.016 394.828C556.283 395.923 558.684 396.47 559.217 396.196C559.306 396.151 559.395 396.113 559.484 396.075C559.929 395.885 560.373 395.694 560.818 394.555C561.245 393.46 558.328 381.512 556.816 375.675C558.684 382.698 562.579 397.4 563.219 400.027C563.914 402.88 565.617 402.634 566.401 402.521C566.519 402.504 566.617 402.49 566.687 402.49C567.087 402.49 567.487 402.028 567.887 401.566C568.021 401.412 568.154 401.258 568.288 401.121C568.714 400.684 565.442 383.975 563.752 375.675C565.531 383.792 569.195 400.355 569.621 401.669C570.155 403.31 571.756 404.405 573.625 403.858C574.889 403.487 575.172 402.365 575.391 401.508C575.497 401.1 575.583 400.751 575.759 400.574C576.186 400.136 572.734 382.88 570.955 374.307C572.378 381.056 575.332 395.047 575.759 397.017C576.292 399.48 578.426 400.301 579.494 400.027C579.606 399.998 579.718 399.975 579.83 399.952C580.774 399.762 581.628 399.59 581.628 395.923C581.628 392.639 577.712 371.023 575.759 360.626C577.178 364.365 580.347 372.173 581.628 373.486C583.228 375.128 590.164 373.759 588.831 371.844C588.201 370.94 587.689 369.669 587.102 368.205C586.44 366.569 585.688 364.692 584.562 362.815C583.575 361.174 582.818 358.777 582.001 356.186C581.046 353.161 580.006 349.872 578.426 347.218C576.079 343.278 568.012 337.915 564.455 336C562.944 338.371 557.723 342.348 546.412 340.378C546.145 341.199 545.078 355.974 545.612 360.626C546.021 364.194 551.767 381.767 554.542 390.255Z" fill="#D9D9D9" fill-opacity="0.71" stroke="white" stroke-width="1.5"/>
</g>
<g id="palms">
<path fill-rule="evenodd" clip-rule="evenodd" d="M43.9104 340.5C33.1768 341 25.3903 338.5 23.4189 337C19.8331 338.931 13.0258 343.786 10.6592 347.758C9.06538 350.433 8.01793 353.748 7.05439 356.799C6.64824 358.084 6.25699 359.323 5.84595 360.446C21.7132 360.446 34.4239 366.227 40.3405 373.675C42.0966 368.002 43.54 363.004 43.7384 361.274C44.2763 356.585 44.1794 341.328 43.9104 340.5Z" fill="#9B9B9B" fill-opacity="0.86" stroke="white" stroke-width="1.5"/>
<path fill-rule="evenodd" clip-rule="evenodd" d="M222.209 340.946C232.942 341.439 240.999 338.48 242.971 337C246.557 338.905 253.093 344.188 255.46 348.106C257.054 350.745 258.101 354.016 259.065 357.026C259.471 358.294 259.862 359.516 260.273 360.624C244.406 360.624 231.695 366.328 225.779 373.675C224.023 368.078 222.579 363.147 222.381 361.441C221.843 356.814 221.94 341.763 222.209 340.946Z" fill="#9B9B9B" fill-opacity="0.86" stroke="white" stroke-width="1.5"/>
</g>
<g id="fingers">
<path fill-rule="evenodd" clip-rule="evenodd" d="M40.3404 373.675C34.4238 366.227 21.7132 360.446 5.84593 360.446C5.42219 361.605 4.97737 362.641 4.47367 363.481C3.33824 365.373 2.57733 367.266 1.91424 368.915C1.32082 370.39 0.805735 371.671 0.170685 372.583C-1.17399 374.514 5.81834 375.893 7.43195 374.238C8.72279 372.914 11.9142 365.043 13.3486 361.274C11.3763 371.756 7.43195 393.547 7.43195 396.857C7.43195 400.555 8.29083 400.728 9.24125 400.919C9.35442 400.942 9.46893 400.966 9.58344 400.995C10.6592 401.271 12.8107 400.443 13.3486 397.961C13.7789 395.974 16.7551 381.87 18.1894 375.066C16.3965 383.709 12.9183 401.105 13.3486 401.546C13.5224 401.725 13.612 402.076 13.7171 402.488C13.9373 403.352 14.2259 404.483 15.5 404.857C17.3826 405.408 18.9962 404.305 19.5341 402.65C19.9643 401.326 23.6577 384.628 25.4507 376.445C23.7474 384.812 20.4485 401.657 20.8788 402.098C21.0132 402.236 21.1477 402.391 21.2822 402.546C21.6856 403.012 22.089 403.477 22.4924 403.477C22.5628 403.477 22.661 403.492 22.78 403.509C23.5707 403.623 25.2874 403.871 25.9886 400.995C26.634 398.347 30.5605 383.525 32.443 376.445C30.919 382.33 27.9787 394.375 28.409 395.478C28.8572 396.627 29.3055 396.819 29.7537 397.011C29.8434 397.049 29.933 397.087 30.0226 397.133C30.5605 397.409 32.9809 396.857 33.2498 395.754C33.3125 395.497 33.8861 393.742 34.7361 391.142C36.188 386.702 38.4462 379.795 40.3404 373.675Z" fill="#D9D9D9" fill-opacity="0.71" stroke="white" stroke-width="1.5"/>
<path fill-rule="evenodd" clip-rule="evenodd" d="M225.545 373.399C231.462 365.952 244.172 360.17 260.039 360.17C260.463 361.329 260.908 362.365 261.411 363.205C262.547 365.097 263.308 366.99 263.971 368.639C264.564 370.114 265.079 371.395 265.714 372.307C267.059 374.238 260.067 375.617 258.453 373.962C257.162 372.638 253.971 364.768 252.536 360.998C254.509 371.48 258.453 393.271 258.453 396.581C258.453 400.279 257.594 400.452 256.644 400.643C256.531 400.666 256.416 400.69 256.302 400.719C255.226 400.995 253.074 400.167 252.536 397.685C252.106 395.699 249.13 381.594 247.696 374.79C249.489 383.433 252.967 400.829 252.536 401.271C252.363 401.449 252.273 401.8 252.168 402.212C251.948 403.076 251.659 404.207 250.385 404.581C248.502 405.132 246.889 404.029 246.351 402.374C245.921 401.05 242.228 384.352 240.434 376.169C242.138 384.536 245.437 401.381 245.006 401.822C244.872 401.96 244.737 402.115 244.603 402.27C244.199 402.736 243.796 403.201 243.393 403.201C243.322 403.201 243.224 403.216 243.105 403.233C242.314 403.347 240.598 403.595 239.896 400.719C239.251 398.071 235.325 383.249 233.442 376.169C234.966 382.054 237.906 394.099 237.476 395.202C237.028 396.351 236.579 396.543 236.131 396.735C236.042 396.773 235.952 396.811 235.862 396.857C235.325 397.133 232.904 396.581 232.635 395.478C232.573 395.221 231.999 393.467 231.149 390.866C229.697 386.426 227.439 379.52 225.545 373.399Z" fill="#D9D9D9" fill-opacity="0.71" stroke="white" stroke-width="1.5"/>
</g>
<g id="body_shape">
<path d="M93.6755 519C93.6755 523.373 96.1836 526.46 97.9393 528.518" stroke="white" stroke-width="0.5"/>
<path d="M112.235 519C112.235 523.373 109.727 526.46 107.972 528.518" stroke="white" stroke-width="0.5"/>
<path d="M153.198 519C153.198 523.373 155.707 526.46 157.462 528.518" stroke="white" stroke-width="0.5"/>
<path d="M171.758 519C171.758 523.373 169.25 526.46 167.495 528.518" stroke="white" stroke-width="0.5"/>
<path d="M421.54 513.315C422.794 512.372 425.603 511 428.813 511C432.024 511 435.167 512.372 436.087 513.315" stroke="white" stroke-width="0.5"/>
<path d="M478.135 513.315C479.39 512.372 482.199 511 485.409 511C488.619 511 491.763 512.372 492.682 513.315" stroke="white" stroke-width="0.5"/>
<path fill-rule="evenodd" clip-rule="evenodd" d="M171.427 663.407C171.645 661.888 171.923 659.954 171.923 658.016C168.997 661.112 159.734 666.514 149.099 659.078V664.655V673.951C149.099 676.384 148.526 681.329 148.034 685.568C147.666 688.744 147.344 691.517 147.344 692.542C147.344 694.933 147.595 697.323 148.096 699.448C148.522 701.254 149.852 703.166 150.855 703.963C151.858 704.759 153.363 705.025 155.37 705.025C156.975 705.025 158.713 704.319 159.383 703.963C160.469 704.138 162.894 704.494 163.897 704.494C164.9 704.494 166.656 703.256 167.408 702.635C167.826 702.81 169.064 703.166 170.669 703.166C172.274 703.166 173.511 702.103 173.929 701.572C173.798 701.923 176.939 702.103 177.942 701.572C178.745 701.147 179.781 699.979 180.2 699.448C180.701 699.803 182.005 700.297 183.209 699.448L183.328 699.363C184.779 698.343 185.968 697.503 185.968 694.401C185.968 690.965 180.848 684.606 177.887 680.925C177.638 680.617 177.404 680.325 177.19 680.059C174.431 676.607 171.171 667.046 171.171 665.718C171.171 665.197 171.286 664.39 171.427 663.407Z" stroke="white" stroke-width="1.5"/>
<path fill-rule="evenodd" clip-rule="evenodd" d="M94.5558 663.407C94.3376 661.888 94.0597 659.954 94.0597 658.016C96.9861 661.112 106.249 666.514 116.883 659.078V664.655V673.951C116.883 676.384 117.457 681.329 117.949 685.568C118.317 688.744 118.639 691.517 118.639 692.542C118.639 694.933 118.388 697.323 117.886 699.448C117.461 701.254 116.131 703.166 115.128 703.963C114.124 704.759 112.619 705.025 110.613 705.025C109.008 705.025 107.269 704.319 106.6 703.963C105.514 704.138 103.089 704.494 102.086 704.494C101.082 704.494 99.3266 703.256 98.5742 702.635C98.1564 702.81 96.9189 703.166 95.3137 703.166C93.709 703.166 92.4716 702.103 92.0532 701.572C92.1851 701.923 89.0435 702.103 88.0403 701.572C87.2382 701.147 86.2013 699.979 85.783 699.448C85.2814 699.803 83.9777 700.297 82.7733 699.448L82.6549 699.363C81.2032 698.343 80.0144 697.503 80.0144 694.401C80.0144 690.965 85.1354 684.606 88.0954 680.925C88.3448 680.617 88.5785 680.325 88.7927 680.059C91.5516 676.607 94.8121 667.046 94.8121 665.718C94.8121 665.197 94.6967 664.39 94.5558 663.407Z" stroke="white" stroke-width="1.5"/>
<path fill-rule="evenodd" clip-rule="evenodd" d="M418.776 669.457C418.784 667.391 418.8 663.274 418.731 659.078C421.657 662.175 430.157 666.514 440.791 659.078C441.041 659.758 441.26 660.22 441.449 660.618C441.857 661.479 442.126 662.047 442.258 663.858C442.458 666.621 441.506 672.979 441.004 675.81C442.09 680.415 444.264 690.577 444.264 694.401C444.264 699.182 442.919 701.572 441.004 703.431C439.089 705.291 432.727 705.556 430.721 705.025C429.881 704.802 428.108 704.117 426.14 703.352C423.402 702.289 420.286 701.084 418.773 700.776C417.762 700.568 416.307 700.483 414.775 700.393C412.372 700.25 409.777 700.096 408.399 699.448C406.593 698.598 403.976 697.089 403.976 694.401C403.976 690.412 406.741 688.457 409.764 686.327C411.368 685.196 413.044 684.017 414.418 682.45L419.591 675.013C419.145 673.85 418.773 672.31 418.773 670.498C418.773 670.264 418.775 669.909 418.776 669.457Z" stroke="white" stroke-width="1.5"/>
<path fill-rule="evenodd" clip-rule="evenodd" d="M494.841 669.457C494.833 667.391 494.817 663.274 494.887 659.078C491.96 662.175 483.46 666.514 472.826 659.078C472.577 659.758 472.358 660.22 472.168 660.618C471.761 661.479 471.491 662.047 471.36 663.858C471.159 666.621 472.112 672.979 472.614 675.81C471.527 680.415 469.353 690.577 469.353 694.401C469.353 699.182 470.699 701.572 472.614 703.431C474.528 705.291 480.89 705.556 482.897 705.025C483.736 704.802 485.509 704.117 487.478 703.352C490.215 702.289 493.332 701.084 494.844 700.775C495.856 700.568 497.31 700.483 498.842 700.393C501.246 700.25 503.84 700.096 505.219 699.448C507.025 698.598 509.642 697.089 509.642 694.401C509.642 690.412 506.876 688.457 503.853 686.327C502.249 685.196 500.573 684.017 499.199 682.45L494.026 675.013C494.472 673.85 494.844 672.31 494.844 670.498C494.844 670.264 494.842 669.909 494.841 669.457Z" stroke="white" stroke-width="1.5"/>
<path d="M117.798 620.599C116.606 642 116.899 654 116.899 659.5C104.214 667 98.0665 661 96.1149 659.5C94.3998 658.182 93.436 655.9 93.1876 655C80.8953 600.436 80.5905 559.445 83.8592 535.59C88.8894 537.092 103.508 540.094 121.739 540.094C122.655 548.338 123.497 558.009 122.822 569.37C121.5 591.607 120.707 600.614 117.798 620.599Z" stroke="white" stroke-width="1.5" stroke-linejoin="round"/>
<path d="M148.172 620.599C149.364 642 149.071 654 149.071 659.5C161.756 667 167.904 661 169.855 659.5C171.57 658.182 172.534 655.9 172.783 655C185.075 600.436 185.38 559.445 182.111 535.59C177.081 537.092 162.462 540.094 144.231 540.094C143.315 548.338 142.473 558.009 143.149 569.37C144.471 591.607 145.264 600.614 148.172 620.599Z" stroke="white" stroke-width="1.5" stroke-linejoin="round"/>
<path d="M442.608 620.599C441.416 642 441.416 654 441.416 659.5C428.731 667 421.787 661.377 420.076 659.5C419.164 658.5 418.246 655.9 417.997 655C405.705 600.436 404.463 545 411.856 521.092C416.886 522.594 428.37 530 444.471 521.092C445.387 529.336 448.307 558.009 447.631 569.37C446.309 591.607 445.517 600.614 442.608 620.599Z" stroke="white" stroke-width="1.5" stroke-linejoin="round"/>
<path d="M471.55 620.599C472.741 642 472.741 654 472.741 659.5C485.427 667 492.37 661.377 494.082 659.5C494.993 658.5 495.912 655.9 496.16 655C508.453 600.436 509.694 545 502.302 521.092C497.272 522.594 485.787 530 469.687 521.092C468.771 529.336 465.851 558.009 466.526 569.37C467.848 591.607 468.641 600.614 471.55 620.599Z" stroke="white" stroke-width="1.5" stroke-linejoin="round"/>
<path d="M87.659 520.111C87.8088 515.648 87.1526 510.282 86.1355 504.346C90.9049 505.753 104.566 508.567 121.06 508.567C120.607 513.718 120.29 517.761 120.18 520.111C119.921 525.618 120.864 532.202 121.74 540.094C103.509 540.094 88.8913 537.091 83.8608 535.59C84.7403 529.172 86.0331 523.99 87.659 520.111Z" stroke="white" stroke-width="1.5" stroke-linejoin="round"/>
<path d="M178.429 520.111C178.279 515.648 178.935 510.282 179.952 504.346C175.182 505.753 161.521 508.567 145.027 508.567C145.48 513.718 145.797 517.761 145.908 520.111C146.167 525.618 145.223 532.202 144.347 540.094C162.578 540.094 177.197 537.091 182.227 535.59C181.347 529.172 180.054 523.99 178.429 520.111Z" stroke="white" stroke-width="1.5" stroke-linejoin="round"/>
<path d="M130.408 382.465C130.009 399.212 129.278 420.297 128.11 433.978C126.436 453.578 122.776 489.04 121.059 508.567C104.565 508.567 90.9038 505.753 86.1342 504.346C83.5591 489.317 78.6678 470.632 78.6678 453.682C75.1536 433.478 75.2723 402.833 76.9546 374.302C86.7945 379.706 116.69 381.996 130.408 382.465Z" stroke="white" stroke-width="1.5" stroke-linejoin="round"/>
<path d="M135.677 382.465C136.075 399.212 136.807 420.297 137.975 433.978C139.648 453.578 143.308 489.04 145.026 508.567C161.52 508.567 175.181 505.753 179.951 504.346C182.526 489.317 187.417 470.632 187.417 453.682C190.932 433.478 190.812 402.833 189.131 374.302C179.29 379.706 149.395 381.996 135.677 382.465Z" stroke="white" stroke-width="1.5" stroke-linejoin="round"/>
<path d="M133.133 363.608H130.754C130.699 368.314 130.587 374.954 130.408 382.465C116.69 381.996 86.7938 379.706 76.9539 374.302C78.598 346.418 81.7356 320.555 84.4347 308.436C85.0127 310.968 99.7365 315.754 133.133 315.754M132.95 363.608H135.33C135.384 368.314 135.497 374.954 135.676 382.465C149.394 381.996 179.29 379.706 189.13 374.302C187.485 346.418 184.348 320.555 181.649 308.436C181.07 310.968 166.347 315.754 132.95 315.754" stroke="white" stroke-width="1.5" stroke-linejoin="round"/>
<path d="M133.135 236.377C110.079 236.377 87.5699 230.49 79.1975 227.548C82.0874 236.023 84.8801 243.113 85.0143 244.542C85.2787 247.357 87.1296 295.771 86.6007 301.683C85.9454 302.624 85.2088 304.967 84.4363 308.436C85.0143 310.969 99.7381 315.754 133.135 315.754M132.952 236.377C156.007 236.377 178.517 230.49 186.889 227.548C184 236.023 181.207 243.113 181.072 244.542C180.808 247.357 178.957 295.771 179.486 301.683C180.141 302.624 180.878 304.967 181.651 308.436C181.072 310.969 166.349 315.754 132.952 315.754" stroke="white" stroke-width="1.5" stroke-linejoin="round"/>
<path d="M133.133 169.103C85.0124 169.103 63.2654 160.564 45.9563 153.621C44.311 157.488 43.1529 161.992 42.709 167.245C51.0498 170.304 68.2434 178.617 70.291 187.399C72.3385 196.181 72.8504 201.381 72.8504 202.883C73.5012 209.81 76.3942 219.331 79.1959 227.548C87.5683 230.49 110.078 236.377 133.133 236.377M132.95 169.103C181.071 169.103 202.818 160.564 220.128 153.621C221.772 157.488 222.93 161.992 223.374 167.245C215.034 170.304 197.84 178.617 195.793 187.399C193.745 196.181 193.233 201.381 193.233 202.883C192.582 209.81 189.69 219.331 186.888 227.548C178.515 230.49 156.006 236.377 132.95 236.377" stroke="white" stroke-width="1.5" stroke-linejoin="round"/>
<path d="M133.134 122.096C121.585 122.096 113.04 113.651 113.04 112.246C103.169 117.406 82.5815 128.065 79.1971 129.417C75.9603 130.709 54.4571 133.649 45.9575 153.621C63.2666 160.564 85.0137 169.103 133.134 169.103M132.952 122.096C144.5 122.096 153.046 113.651 153.046 112.246C162.917 117.406 183.505 128.065 186.889 129.417C190.126 130.709 211.629 133.649 220.128 153.621C202.819 160.564 181.072 169.103 132.952 169.103" stroke="white" stroke-width="1.5" stroke-linejoin="round"/>
<path d="M133.133 99.0143C123.759 99.0143 115.831 93.8563 113.039 92.8242V112.246C113.039 113.651 121.585 122.096 133.133 122.096M132.951 99.0143C142.326 99.0143 150.253 93.8563 153.045 92.8242V112.246C153.045 113.651 144.501 122.096 132.951 122.096" stroke="white" stroke-width="1.5" stroke-linejoin="round"/>
<path d="M133.134 5.00001L133.114 5.00001C131.688 4.9994 110.508 4.99031 104.315 25.9985C109.134 26.8804 121.644 27.2369 133.134 27.2369M132.952 5.00001L132.972 5.00001C134.397 4.9994 155.577 4.99031 161.771 25.9985C156.952 26.8804 144.441 27.2369 132.952 27.2369" stroke="white" stroke-width="1.5" stroke-linejoin="round"/>
<path d="M454.185 382.465C453.786 399.212 453.054 420.297 451.886 433.978C450.212 453.578 446.552 489.04 444.835 508.567C444.382 513.718 444.064 517.761 443.954 520.111C443.956 521.517 440.633 524.331 427.32 524.331C414.006 524.331 411.181 521.517 411.433 520.111C411.583 515.648 410.927 510.282 409.91 504.346C407.334 489.317 402.444 470.632 402.444 453.682C398.93 433.478 399.048 402.833 400.731 374.302C410.57 379.706 440.466 381.996 454.185 382.465Z" stroke="white" stroke-width="1.5" stroke-linejoin="round"/>
<path d="M459.452 382.465C459.851 399.212 460.582 420.297 461.751 433.978C463.424 453.578 467.085 489.04 468.801 508.567C469.254 513.718 469.572 517.761 469.682 520.111C469.68 521.517 471.569 524.331 485.487 524.331C499.405 524.331 502.96 521.517 502.204 520.111C502.054 515.648 502.709 510.282 503.726 504.346C506.301 489.317 511.193 470.632 511.193 453.682C514.707 433.478 514.589 402.833 512.906 374.302C503.066 379.706 473.17 381.996 459.452 382.465Z" stroke="white" stroke-width="1.5" stroke-linejoin="round"/>
<path d="M456.909 315.754C423.512 315.754 408.788 310.968 408.21 308.436C405.511 320.555 402.374 346.418 400.73 374.302C410.57 379.706 440.466 381.996 454.184 382.465C455.465 376.161 455.858 371.059 455.913 366.352L456.726 350.095L457.707 366.352C457.707 371.515 458.604 376.161 459.451 382.465C473.169 381.996 503.065 379.706 512.905 374.302C511.261 346.418 508.124 320.555 505.424 308.436C504.847 310.968 490.123 315.754 456.726 315.754" stroke="white" stroke-width="1.5" stroke-linejoin="round"/>
<path fill-rule="evenodd" clip-rule="evenodd" d="M104.313 25.9986C102.529 32.0473 101.989 39.8848 103.52 50.0394L104.313 75.6541C103.678 84.211 109.865 90.6663 113.038 92.8243C113.636 93.0452 114.468 93.4551 115.5 93.9628C119.274 95.8202 125.711 98.9882 133.041 99.0143C140.372 98.9882 146.808 95.8203 150.582 93.9629C151.614 93.4551 152.447 93.0452 153.044 92.8243C156.217 90.6663 162.403 84.211 161.769 75.6541L162.562 50.0394C164.093 39.8848 163.552 32.0473 161.769 25.9986C156.963 26.8782 144.506 27.2351 133.041 27.237C121.577 27.2351 109.12 26.8782 104.313 25.9986Z" stroke="white" stroke-width="1.5" stroke-linejoin="round"/>
<path d="M456.91 122.096C445.361 122.096 436.815 113.651 436.815 112.246C426.945 117.406 406.357 128.065 402.973 129.417C399.736 130.709 378.233 133.649 369.733 153.621C387.042 160.564 408.789 169.103 456.91 169.103M456.727 122.096C468.277 122.096 476.821 113.651 476.821 112.246C486.693 117.406 507.28 128.065 510.665 129.417C513.902 130.709 535.405 133.649 543.905 153.621C526.596 160.564 504.849 169.103 456.727 169.103" stroke="white" stroke-width="1.5" stroke-linejoin="round"/>
<path d="M456.909 99.0143C447.534 99.0143 439.607 93.8563 436.815 92.8242V112.246C436.815 113.651 445.36 122.096 456.909 122.096M456.727 99.0143C466.102 99.0143 474.029 93.8563 476.821 92.8242V112.246C476.821 113.651 468.276 122.096 456.727 122.096" stroke="white" stroke-width="1.5" stroke-linejoin="round"/>
<path d="M406.169 236.606C405.221 233.97 404.105 230.865 402.974 227.548C400.172 219.331 397.279 209.81 396.629 202.883C391.751 191.004 378.895 167.245 366.487 167.245C366.931 161.991 368.089 157.488 369.734 153.621C387.033 160.56 408.763 169.092 456.82 169.103C504.876 169.092 526.607 160.56 543.905 153.621C545.551 157.488 546.709 161.991 547.153 167.245C534.4 167.245 521.745 191.004 517.011 202.883C516.36 209.81 513.467 219.331 510.666 227.548C509.534 230.865 508.418 233.969 507.47 236.606C505.997 240.706 504.93 243.672 504.849 244.542C504.584 247.357 502.734 295.771 503.262 301.683C503.918 302.624 504.654 304.967 505.427 308.436C504.85 310.966 490.152 315.746 456.82 315.754C423.488 315.746 408.79 310.966 408.213 308.436C408.985 304.967 409.721 302.624 410.377 301.683C410.906 295.771 409.055 247.357 408.79 244.542C408.709 243.672 407.641 240.703 406.169 236.606Z" stroke="white" stroke-width="1.5" stroke-linejoin="round"/>
<path d="M37.6868 244.542C36.8936 214.143 37.6868 190.498 42.7104 177.268C42.4352 173.656 42.4505 170.322 42.7104 167.245C51.0512 170.304 68.2449 178.616 70.2924 187.399C72.3399 196.181 72.8519 201.381 72.8519 202.883C70.7366 215.55 62.2759 258.053 64.6555 273.253C56.1076 270.5 42.9345 254.5 37.6868 244.542Z" stroke="white" stroke-width="1.5" stroke-linejoin="round"/>
<path fill-rule="evenodd" clip-rule="evenodd" d="M366.486 167.245C366.226 170.322 366.212 173.656 366.486 177.268C361.463 190.498 360.67 214.143 361.463 244.542C367.72 254.112 381.874 273.253 388.431 273.253C386.398 260.266 392.28 227.343 395.354 210.134L395.358 210.11C395.88 207.189 396.321 204.722 396.628 202.883C391.751 191.004 378.895 167.245 366.486 167.245Z" stroke="white" stroke-width="1.5" stroke-linejoin="round"/>
<path fill-rule="evenodd" clip-rule="evenodd" d="M518.284 210.131C521.358 227.339 527.24 260.265 525.207 273.253C539.773 268.186 547.152 254.333 552.176 244.542C552.969 214.143 552.176 190.498 547.152 177.268C547.428 173.656 547.412 170.322 547.152 167.245C534.4 167.245 521.745 191.004 517.01 202.883C517.319 204.726 517.76 207.2 518.284 210.131Z" stroke="white" stroke-width="1.5" stroke-linejoin="round"/>
<path d="M33.4299 257.939C31.5877 261.624 30.1839 265 29.5535 268.186C27.81 277 27.1059 284.233 26.5956 298.765C26.0099 315.472 26.8605 333.294 23.8909 336.304C22.2056 338.013 25.3545 338 28.2819 339C33.1608 340.5 36.0882 341.5 43.4066 340.5C43.159 337.478 43.3325 338.164 43.8312 336.304C44.8886 332.364 52.0279 307.875 64.4544 273.253C57.8972 273.253 43.7433 254.112 37.4857 244.542C38.2292 248.34 35.7962 253.206 33.4303 257.939L33.4299 257.939Z" stroke="white" stroke-width="1.5" stroke-linejoin="round"/>
<path d="M228.371 244.542C229.164 214.143 228.371 190.498 223.347 177.268C223.622 173.656 223.607 170.322 223.347 167.245C215.006 170.304 197.813 178.616 195.765 187.399C193.718 196.181 193.206 201.381 193.206 202.883C195.321 215.55 203.782 258.053 201.402 273.253C209.95 270.5 223.123 254.5 228.371 244.542Z" stroke="white" stroke-width="1.5" stroke-linejoin="round"/>
<path d="M232.628 257.939C234.47 261.624 235.874 265 236.504 268.186C238.248 277 238.952 284.233 239.462 298.765C240.048 315.472 239.197 333.294 242.167 336.304C243.852 338.013 240.703 338 237.776 339C232.897 340.5 229.969 341.5 222.651 340.5C222.899 337.478 222.725 338.164 222.226 336.304C221.169 332.364 214.03 307.875 201.603 273.253C208.16 273.253 222.314 254.112 228.572 244.542C227.828 248.34 230.261 253.206 232.627 257.939L232.628 257.939Z" stroke="white" stroke-width="1.5" stroke-linejoin="round"/>
<path d="M357.391 257.939C355.549 261.624 354.145 265 353.515 268.186C351.771 277 351.067 284.233 350.557 298.765C349.971 315.472 350.822 333.294 347.852 336.304C346.167 338.013 349.316 338 352.243 339C357.122 340.5 360.049 341.5 367.368 340.5C367.12 337.478 367.294 338.164 367.792 336.304C368.85 332.364 375.989 307.875 388.416 273.253C381.858 273.253 367.704 254.112 361.447 244.542C362.19 248.34 359.757 253.206 357.392 257.939L357.391 257.939Z" stroke="white" stroke-width="1.5" stroke-linejoin="round"/>
<path d="M556.486 257.939C558.328 261.624 559.732 265 560.362 268.186C562.106 277 562.81 284.233 563.32 298.765C563.906 315.472 563.055 333.294 566.025 336.304C567.71 338.013 564.561 338 561.634 339C556.755 340.5 553.827 341.5 546.509 340.5C546.756 337.478 546.583 338.164 546.084 336.304C545.027 332.364 537.888 307.875 525.461 273.253C532.018 273.253 546.172 254.112 552.43 244.542C551.686 248.34 554.119 253.206 556.485 257.939L556.486 257.939Z" stroke="white" stroke-width="1.5" stroke-linejoin="round"/>
<path d="M103.882 54.5569C104.323 50.7256 106.09 46.0426 108.741 43.4884C108.741 41.7855 110.181 34.6016 111.506 32.8455C114.333 29.0992 115.807 28.1627 118.898 27.7369C121.989 27.3113 131.264 32.8455 133.031 32.8455C135.239 32.8455 143.518 27.0125 147.381 27.7369C149.576 28.1486 152.011 30.2548 153.66 32.8455C156.054 36.6063 157.235 41.3878 157.322 43.4883C159.236 46.0426 162.18 49.0226 162.18 54.5569" stroke="white" stroke-width="1.5"/>
<path d="M71.8179 182.579C72.8231 189.905 77.8497 208.606 86.8975 212.076C97.956 216.317 110.019 214.389 117.559 212.076" stroke="white" stroke-width="1.5"/>
<path d="M194.468 183.611C193.463 190.938 188.437 209.638 179.389 213.108C168.33 217.349 156.267 215.422 148.727 213.108" stroke="white" stroke-width="1.5"/>
<path d="M92.6707 199.614C93.7605 199.614 94.4645 200.409 94.4645 201.163C94.4645 201.916 93.7605 202.711 92.6707 202.711C91.5819 202.711 90.877 201.916 90.877 201.163C90.877 200.409 91.5819 199.614 92.6707 199.614Z" stroke="white" stroke-width="1.5"/>
<path d="M173.616 200.647C172.527 200.647 171.822 201.442 171.822 202.195C171.822 202.949 172.527 203.744 173.616 203.744C174.705 203.744 175.409 202.949 175.409 202.195C175.409 201.442 174.705 200.647 173.616 200.647Z" stroke="white" stroke-width="1.5"/>
<path d="M133.48 301.825C134.146 301.825 134.73 302.034 135.133 302.344C135.54 302.655 135.722 303.03 135.722 303.374C135.722 303.718 135.54 304.092 135.133 304.404C134.73 304.714 134.146 304.923 133.48 304.923C132.813 304.923 132.229 304.714 131.826 304.404C131.419 304.092 131.237 303.718 131.237 303.374C131.237 303.03 131.419 302.655 131.826 302.344C132.229 302.034 132.813 301.825 133.48 301.825Z" fill="#D9D9D9" stroke="white" stroke-width="1.5"/>
<path d="M448.289 169.157C448.13 181.359 446.471 207.114 441.114 212.52" stroke="white" stroke-width="1.5"/>
<path d="M466.227 169.157C466.387 181.359 468.045 207.114 473.402 212.52" stroke="white" stroke-width="1.5"/>
<path d="M457.707 241.944L457.259 285.822" stroke="white" stroke-width="1.5"/>
<path d="M486.341 50.0393C498.504 49.4763 494.538 70.3058 485.548 75.6539" stroke="white" stroke-width="1.5" stroke-linejoin="round"/>
<path d="M427.298 50.0393C415.137 49.4763 419.103 70.3058 428.092 75.6539" stroke="white" stroke-width="1.5" stroke-linejoin="round"/>
<path d="M103.519 50.0394C91.3575 49.4765 95.3236 70.306 104.313 75.6541" stroke="white" stroke-width="1.5" stroke-linejoin="round"/>
<path d="M162.562 50.0394C174.725 49.4765 170.759 70.306 161.769 75.6541" stroke="white" stroke-width="1.5" stroke-linejoin="round"/>
<path fill-rule="evenodd" clip-rule="evenodd" d="M486.341 50.0393C487.872 39.8847 487.331 32.0471 485.548 25.9984C479.441 5.28357 458.763 5.00321 456.82 5C454.877 5.00321 434.199 5.28357 428.092 25.9984C426.308 32.0471 425.768 39.8847 427.299 50.0393L428.092 75.6539C427.457 84.2109 433.644 90.6662 436.817 92.8242C437.415 93.0452 438.247 93.455 439.279 93.9628C443.053 95.8199 449.487 98.9869 456.815 99.0141C464.148 98.9892 470.586 95.8204 474.361 93.9627C475.393 93.455 476.226 93.0451 476.823 92.8242C479.996 90.6662 486.182 84.2109 485.548 75.6539L486.341 50.0393Z" stroke="white" stroke-width="1.5" stroke-linejoin="round"/>
<path fill-rule="evenodd" clip-rule="evenodd" d="M359.393 390.255C358.55 392.834 357.981 394.573 357.919 394.828C357.652 395.923 355.252 396.47 354.718 396.196C354.629 396.151 354.54 396.113 354.451 396.075C354.007 395.885 353.562 395.694 353.117 394.555C352.691 393.46 355.607 381.512 357.119 375.675C355.252 382.698 351.357 397.4 350.716 400.027C350.021 402.88 348.318 402.634 347.534 402.521C347.415 402.504 347.318 402.49 347.248 402.49C346.848 402.49 346.448 402.028 346.048 401.566C345.915 401.412 345.781 401.258 345.648 401.121C345.221 400.684 348.493 383.975 350.183 375.675C348.404 383.792 344.741 400.355 344.314 401.669C343.78 403.31 342.18 404.405 340.312 403.858C339.048 403.487 338.762 402.365 338.544 401.508C338.44 401.1 338.35 400.751 338.178 400.574C337.751 400.136 341.201 382.88 342.98 374.307C341.557 381.056 338.605 395.047 338.178 397.017C337.645 399.48 335.51 400.301 334.443 400.027C334.33 399.998 334.216 399.975 334.104 399.952C333.161 399.762 332.309 399.59 332.309 395.923C332.309 392.639 336.222 371.023 338.178 360.626C336.755 364.365 333.59 372.173 332.309 373.486C330.709 375.128 323.772 373.759 325.106 371.844C325.736 370.94 326.247 369.669 326.836 368.205C327.493 366.569 328.248 364.692 329.375 362.815C330.359 361.174 331.116 358.777 331.935 356.186C332.89 353.161 333.93 349.872 335.51 347.218C337.858 343.278 345.923 337.915 349.48 336C350.992 338.371 356.212 342.348 367.523 340.378C367.79 341.199 368.857 355.974 368.323 360.626C367.914 364.194 362.168 381.767 359.393 390.255Z" stroke="white" stroke-width="1.5"/>
<path fill-rule="evenodd" clip-rule="evenodd" d="M554.542 390.255C555.385 392.834 555.954 394.573 556.016 394.828C556.283 395.923 558.684 396.47 559.218 396.196C559.306 396.151 559.395 396.113 559.484 396.075C559.929 395.885 560.373 395.694 560.818 394.555C561.245 393.46 558.328 381.512 556.817 375.675C558.684 382.698 562.579 397.4 563.219 400.027C563.914 402.88 565.617 402.634 566.402 402.521C566.52 402.504 566.617 402.49 566.687 402.49C567.087 402.49 567.487 402.028 567.888 401.566C568.021 401.412 568.154 401.258 568.288 401.121C568.715 400.684 565.442 383.975 563.753 375.675C565.531 383.792 569.195 400.355 569.622 401.669C570.155 403.31 571.756 404.405 573.625 403.858C574.889 403.487 575.172 402.365 575.391 401.508C575.498 401.1 575.583 400.751 575.759 400.574C576.186 400.136 572.734 382.88 570.955 374.307C572.378 381.056 575.332 395.047 575.759 397.017C576.293 399.48 578.427 400.301 579.494 400.027C579.606 399.998 579.718 399.975 579.83 399.952C580.774 399.762 581.628 399.59 581.628 395.923C581.628 392.639 577.712 371.023 575.759 360.626C577.178 364.365 580.347 372.173 581.628 373.486C583.229 375.128 590.165 373.759 588.831 371.844C588.201 370.94 587.689 369.669 587.102 368.205C586.441 366.569 585.688 364.692 584.562 362.815C583.575 361.174 582.818 358.777 582.001 356.186C581.046 353.161 580.006 349.872 578.427 347.218C576.079 343.278 568.012 337.915 564.455 336C562.944 338.371 557.724 342.348 546.412 340.378C546.146 341.199 545.079 355.974 545.612 360.626C546.021 364.194 551.767 381.767 554.542 390.255Z" stroke="white" stroke-width="1.5"/>
<path fill-rule="evenodd" clip-rule="evenodd" d="M43.9104 340.5C33.1768 341 25.3903 338.5 23.4189 337C19.8331 338.931 13.0258 343.786 10.6592 347.758C9.06538 350.433 8.01793 353.748 7.05439 356.799C6.64824 358.084 6.25699 359.323 5.84595 360.446C21.7132 360.446 34.4239 366.227 40.3405 373.675C42.0966 368.002 43.54 363.004 43.7384 361.274C44.2763 356.585 44.1794 341.328 43.9104 340.5Z" stroke="white" stroke-width="1"/>
<path fill-rule="evenodd" clip-rule="evenodd" d="M222.209 340.946C232.942 341.439 240.999 338.48 242.971 337C246.557 338.905 253.093 344.188 255.46 348.106C257.054 350.745 258.101 354.016 259.065 357.026C259.471 358.294 259.862 359.516 260.273 360.624C244.406 360.624 231.695 366.328 225.779 373.675C224.023 368.078 222.579 363.147 222.381 361.441C221.843 356.814 221.94 341.763 222.209 340.946Z" stroke="white" stroke-width="1"/>
<path fill-rule="evenodd" clip-rule="evenodd" d="M40.3404 373.675C34.4238 366.227 21.7132 360.446 5.84593 360.446C5.42219 361.605 4.97737 362.641 4.47367 363.481C3.33824 365.373 2.57733 367.266 1.91424 368.915C1.32082 370.39 0.805735 371.671 0.170685 372.583C-1.17399 374.514 5.81834 375.893 7.43195 374.238C8.72279 372.914 11.9142 365.043 13.3486 361.274C11.3763 371.756 7.43195 393.547 7.43195 396.857C7.43195 400.554 8.29083 400.728 9.24125 400.919C9.35442 400.942 9.46893 400.965 9.58344 400.995C10.6592 401.271 12.8107 400.443 13.3486 397.96C13.7789 395.974 16.7551 381.87 18.1894 375.066C16.3965 383.709 12.9183 401.105 13.3486 401.546C13.5224 401.725 13.612 402.076 13.7171 402.488C13.9373 403.351 14.2259 404.483 15.5 404.856C17.3826 405.408 18.9962 404.305 19.5341 402.65C19.9643 401.326 23.6577 384.628 25.4507 376.445C23.7474 384.812 20.4485 401.657 20.8788 402.098C21.0132 402.236 21.1477 402.391 21.2822 402.546C21.6856 403.012 22.089 403.477 22.4924 403.477C22.5628 403.477 22.661 403.492 22.78 403.509C23.5707 403.623 25.2874 403.871 25.9886 400.995C26.634 398.347 30.5605 383.525 32.443 376.445C30.919 382.33 27.9787 394.375 28.409 395.478C28.8572 396.627 29.3055 396.819 29.7537 397.01C29.8434 397.049 29.933 397.087 30.0226 397.133C30.5605 397.409 32.9809 396.857 33.2498 395.754C33.3125 395.497 33.8861 393.742 34.7361 391.142C36.188 386.702 38.4462 379.795 40.3404 373.675Z" stroke="white" stroke-width="1"/>
<path fill-rule="evenodd" clip-rule="evenodd" d="M225.545 373.399C231.462 365.952 244.172 360.17 260.039 360.17C260.463 361.329 260.908 362.365 261.411 363.205C262.547 365.097 263.308 366.99 263.971 368.639C264.564 370.114 265.079 371.395 265.714 372.307C267.059 374.238 260.067 375.617 258.453 373.962C257.162 372.638 253.971 364.768 252.536 360.998C254.509 371.48 258.453 393.271 258.453 396.581C258.453 400.279 257.594 400.452 256.644 400.643C256.531 400.666 256.416 400.69 256.302 400.719C255.226 400.995 253.074 400.167 252.536 397.685C252.106 395.699 249.13 381.594 247.696 374.79C249.489 383.433 252.967 400.829 252.536 401.271C252.363 401.449 252.273 401.8 252.168 402.212C251.948 403.076 251.659 404.207 250.385 404.581C248.502 405.132 246.889 404.029 246.351 402.374C245.921 401.05 242.228 384.352 240.434 376.169C242.138 384.536 245.437 401.381 245.006 401.822C244.872 401.96 244.737 402.115 244.603 402.27C244.199 402.736 243.796 403.201 243.393 403.201C243.322 403.201 243.224 403.216 243.105 403.233C242.314 403.347 240.598 403.595 239.896 400.719C239.251 398.071 235.325 383.249 233.442 376.169C234.966 382.054 237.906 394.099 237.476 395.202C237.028 396.351 236.579 396.543 236.131 396.735C236.042 396.773 235.952 396.811 235.862 396.857C235.325 397.133 232.904 396.581 232.635 395.478C232.573 395.221 231.999 393.467 231.149 390.866C229.697 386.426 227.439 379.52 225.545 373.399Z" stroke="white" stroke-width="1"/>
</g>
</g>
</svg>
